{"nombre":"1468075787310.mp4","metadata":{"streams":[{"index":0,"codec_name":"h264","codec_long_name":"H.264 / AVC / MPEG-4 AVC / MPEG-4 part 10","profile":"Baseline","codec_type":"video","codec_time_base":"1/60054","codec_tag_string":"avc1","codec_tag":"0x31637661","width":640,"height":352,"coded_width":640,"coded_height":352,"has_b_frames":0,"sample_aspect_ratio":"0:1","display_aspect_ratio":"0:1","pix_fmt":"yuv420p","level":30,"color_range":"N/A","color_space":"unknown","color_transfer":"unknown","color_primaries":"unknown","chroma_location":"left","timecode":"N/A","refs":1,"is_avc":1,"nal_length_size":4,"id":"N/A","r_frame_rate":"30027/1000","avg_frame_rate":"30027/1000","time_base":"1/30027","start_pts":0,"start_time":0,"duration_ts":765000,"duration":25.477071,"bit_rate":1686697,"max_bit_rate":"N/A","bits_per_raw_sample":8,"nb_frames":765,"nb_read_frames":"N/A","nb_read_packets":"N/A","side_data_type":"Display Matrix","side_data_size":36,"displaymatrix":"","rotation":"-90","tags":{"rotate":"90","creation_time":"2016-02-18 00:19:29","language":"eng","encoder":"AVC Coding"},"disposition":{"default":1,"dub":0,"original":0,"comment":0,"lyrics":0,"karaoke":0,"forced":0,"hearing_impaired":0,"visual_impaired":0,"clean_effects":0,"attached_pic":0}},{"index":1,"codec_name":"aac","codec_long_name":"AAC (Advanced Audio Coding)","profile":"LC","codec_type":"audio","codec_time_base":"1/48000","codec_tag_string":"mp4a","codec_tag":"0x6134706d","sample_fmt":"fltp","sample_rate":48000,"channels":2,"channel_layout":"stereo","bits_per_sample":0,"id":"N/A","r_frame_rate":"0/0","avg_frame_rate":"0/0","time_base":"1/48000","start_pts":0,"start_time":0,"duration_ts":1232896,"duration":25.685333,"bit_rate":125794,"max_bit_rate":"N/A","bits_per_raw_sample":"N/A","nb_frames":1204,"nb_read_frames":"N/A","nb_read_packets":"N/A","tags":{"creation_time":"2016-02-14 05:55:44","language":"eng"},"disposition":{"default":1,"dub":0,"original":0,"comment":0,"lyrics":0,"karaoke":0,"forced":0,"hearing_impaired":0,"visual_impaired":0,"clean_effects":0,"attached_pic":0}}],"format":{"filename":"/Users/jose/www/video/public/videos/1468075787310.mp4","nb_streams":2,"nb_programs":0,"format_name":"mov,mp4,m4a,3gp,3g2,mj2","format_long_name":"QuickTime / MOV","start_time":0,"duration":25.666667,"size":5797566,"bit_rate":1807033,"probe_score":100,"tags":{"major_brand":"isom","minor_version":"0","compatible_brands":"isomiso2avc1","creation_time":"2016-02-18 00:19:31"}},"chapters":[]},"screenshot":"1468075787310.mp4.png","_id":"JSLwY0tXuLklFC8s"}
{"nombre":"1468091172146.mp4","metadata":{"streams":[{"index":0,"codec_name":"aac","codec_long_name":"AAC (Advanced Audio Coding)","profile":"LC","codec_type":"audio","codec_time_base":"1/44100","codec_tag_string":"mp4a","codec_tag":"0x6134706d","sample_fmt":"fltp","sample_rate":44100,"channels":2,"channel_layout":"stereo","bits_per_sample":0,"id":"N/A","r_frame_rate":"0/0","avg_frame_rate":"0/0","time_base":"1/44100","start_pts":0,"start_time":0,"duration_ts":205824,"duration":4.667211,"bit_rate":125587,"max_bit_rate":"N/A","bits_per_raw_sample":"N/A","nb_frames":201,"nb_read_frames":"N/A","nb_read_packets":"N/A","tags":{"language":"und","handler_name":"SoundHandler"},"disposition":{"default":1,"dub":0,"original":0,"comment":0,"lyrics":0,"karaoke":0,"forced":0,"hearing_impaired":0,"visual_impaired":0,"clean_effects":0,"attached_pic":0}},{"index":1,"codec_name":"h264","codec_long_name":"H.264 / AVC / MPEG-4 AVC / MPEG-4 part 10","profile":"Main","codec_type":"video","codec_time_base":"1/50","codec_tag_string":"avc1","codec_tag":"0x31637661","width":854,"height":480,"coded_width":864,"coded_height":480,"has_b_frames":1,"sample_aspect_ratio":"1280:1281","display_aspect_ratio":"16:9","pix_fmt":"yuv420p","level":30,"color_range":"N/A","color_space":"unknown","color_transfer":"unknown","color_primaries":"unknown","chroma_location":"left","timecode":"N/A","refs":3,"is_avc":1,"nal_length_size":4,"id":"N/A","r_frame_rate":"25/1","avg_frame_rate":"115000/4561","time_base":"1/90000","start_pts":0,"start_time":0,"duration_ts":410490,"duration":4.561,"bit_rate":1115932,"max_bit_rate":"N/A","bits_per_raw_sample":8,"nb_frames":115,"nb_read_frames":"N/A","nb_read_packets":"N/A","tags":{"language":"und","handler_name":"VideoHandler"},"disposition":{"default":1,"dub":0,"original":0,"comment":0,"lyrics":0,"karaoke":0,"forced":0,"hearing_impaired":0,"visual_impaired":0,"clean_effects":0,"attached_pic":0}}],"format":{"filename":"/Users/jose/www/video/public/videos/1468091172146.mp4","nb_streams":2,"nb_programs":0,"format_name":"mov,mp4,m4a,3gp,3g2,mj2","format_long_name":"QuickTime / MOV","start_time":0,"duration":4.668,"size":714569,"bit_rate":1224625,"probe_score":100,"tags":{"major_brand":"isom","minor_version":"512","compatible_brands":"isomiso2avc1mp41","encoder":"Lavf56.40.101"}},"chapters":[]},"screenshot":"1468091172146.mp4.png","_id":"Mx0AbFNfCcwUBSYy"}
{"nombre":"1468093339452.mp4","metadata":{"streams":[{"index":0,"codec_name":"aac","codec_long_name":"AAC (Advanced Audio Coding)","profile":"LC","codec_type":"audio","codec_time_base":"1/44100","codec_tag_string":"mp4a","codec_tag":"0x6134706d","sample_fmt":"fltp","sample_rate":44100,"channels":2,"channel_layout":"stereo","bits_per_sample":0,"id":"N/A","r_frame_rate":"0/0","avg_frame_rate":"0/0","time_base":"1/44100","start_pts":0,"start_time":0,"duration_ts":205824,"duration":4.667211,"bit_rate":125587,"max_bit_rate":"N/A","bits_per_raw_sample":"N/A","nb_frames":201,"nb_read_frames":"N/A","nb_read_packets":"N/A","tags":{"language":"und","handler_name":"SoundHandler"},"disposition":{"default":1,"dub":0,"original":0,"comment":0,"lyrics":0,"karaoke":0,"forced":0,"hearing_impaired":0,"visual_impaired":0,"clean_effects":0,"attached_pic":0}},{"index":1,"codec_name":"h264","codec_long_name":"H.264 / AVC / MPEG-4 AVC / MPEG-4 part 10","profile":"Main","codec_type":"video","codec_time_base":"1/50","codec_tag_string":"avc1","codec_tag":"0x31637661","width":854,"height":480,"coded_width":864,"coded_height":480,"has_b_frames":1,"sample_aspect_ratio":"1280:1281","display_aspect_ratio":"16:9","pix_fmt":"yuv420p","level":30,"color_range":"N/A","color_space":"unknown","color_transfer":"unknown","color_primaries":"unknown","chroma_location":"left","timecode":"N/A","refs":3,"is_avc":1,"nal_length_size":4,"id":"N/A","r_frame_rate":"25/1","avg_frame_rate":"115000/4561","time_base":"1/90000","start_pts":0,"start_time":0,"duration_ts":410490,"duration":4.561,"bit_rate":1115932,"max_bit_rate":"N/A","bits_per_raw_sample":8,"nb_frames":115,"nb_read_frames":"N/A","nb_read_packets":"N/A","tags":{"language":"und","handler_name":"VideoHandler"},"disposition":{"default":1,"dub":0,"original":0,"comment":0,"lyrics":0,"karaoke":0,"forced":0,"hearing_impaired":0,"visual_impaired":0,"clean_effects":0,"attached_pic":0}}],"format":{"filename":"/Users/jose/www/video/public/videos/1468093339452.mp4","nb_streams":2,"nb_programs":0,"format_name":"mov,mp4,m4a,3gp,3g2,mj2","format_long_name":"QuickTime / MOV","start_time":0,"duration":4.668,"size":714569,"bit_rate":1224625,"probe_score":100,"tags":{"major_brand":"isom","minor_version":"512","compatible_brands":"isomiso2avc1mp41","encoder":"Lavf56.40.101"}},"chapters":[]},"screenshot":"1468093339452.mp4.png","_id":"PXawBvXUyjSqXWbK"}
{"nombre":"1468093062108.mp4","metadata":{"streams":[{"index":0,"codec_name":"aac","codec_long_name":"AAC (Advanced Audio Coding)","profile":"LC","codec_type":"audio","codec_time_base":"1/44100","codec_tag_string":"mp4a","codec_tag":"0x6134706d","sample_fmt":"fltp","sample_rate":44100,"channels":2,"channel_layout":"stereo","bits_per_sample":0,"id":"N/A","r_frame_rate":"0/0","avg_frame_rate":"0/0","time_base":"1/44100","start_pts":0,"start_time":0,"duration_ts":205824,"duration":4.667211,"bit_rate":125587,"max_bit_rate":"N/A","bits_per_raw_sample":"N/A","nb_frames":201,"nb_read_frames":"N/A","nb_read_packets":"N/A","tags":{"language":"und","handler_name":"SoundHandler"},"disposition":{"default":1,"dub":0,"original":0,"comment":0,"lyrics":0,"karaoke":0,"forced":0,"hearing_impaired":0,"visual_impaired":0,"clean_effects":0,"attached_pic":0}},{"index":1,"codec_name":"h264","codec_long_name":"H.264 / AVC / MPEG-4 AVC / MPEG-4 part 10","profile":"Main","codec_type":"video","codec_time_base":"1/50","codec_tag_string":"avc1","codec_tag":"0x31637661","width":854,"height":480,"coded_width":864,"coded_height":480,"has_b_frames":1,"sample_aspect_ratio":"1280:1281","display_aspect_ratio":"16:9","pix_fmt":"yuv420p","level":30,"color_range":"N/A","color_space":"unknown","color_transfer":"unknown","color_primaries":"unknown","chroma_location":"left","timecode":"N/A","refs":3,"is_avc":1,"nal_length_size":4,"id":"N/A","r_frame_rate":"25/1","avg_frame_rate":"115000/4561","time_base":"1/90000","start_pts":0,"start_time":0,"duration_ts":410490,"duration":4.561,"bit_rate":1115932,"max_bit_rate":"N/A","bits_per_raw_sample":8,"nb_frames":115,"nb_read_frames":"N/A","nb_read_packets":"N/A","tags":{"language":"und","handler_name":"VideoHandler"},"disposition":{"default":1,"dub":0,"original":0,"comment":0,"lyrics":0,"karaoke":0,"forced":0,"hearing_impaired":0,"visual_impaired":0,"clean_effects":0,"attached_pic":0}}],"format":{"filename":"/Users/jose/www/video/public/videos/1468093062108.mp4","nb_streams":2,"nb_programs":0,"format_name":"mov,mp4,m4a,3gp,3g2,mj2","format_long_name":"QuickTime / MOV","start_time":0,"duration":4.668,"size":714569,"bit_rate":1224625,"probe_score":100,"tags":{"major_brand":"isom","minor_version":"512","compatible_brands":"isomiso2avc1mp41","encoder":"Lavf56.40.101"}},"chapters":[]},"screenshot":"1468093062108.mp4.png","_id":"Sqr0OpFZGsIXEWi0"}
{"nombre":"1468093487535.mp4","metadata":{"streams":[{"index":0,"codec_name":"aac","codec_long_name":"AAC (Advanced Audio Coding)","profile":"LC","codec_type":"audio","codec_time_base":"1/44100","codec_tag_string":"mp4a","codec_tag":"0x6134706d","sample_fmt":"fltp","sample_rate":44100,"channels":2,"channel_layout":"stereo","bits_per_sample":0,"id":"N/A","r_frame_rate":"0/0","avg_frame_rate":"0/0","time_base":"1/44100","start_pts":0,"start_time":0,"duration_ts":205824,"duration":4.667211,"bit_rate":125587,"max_bit_rate":"N/A","bits_per_raw_sample":"N/A","nb_frames":201,"nb_read_frames":"N/A","nb_read_packets":"N/A","tags":{"language":"und","handler_name":"SoundHandler"},"disposition":{"default":1,"dub":0,"original":0,"comment":0,"lyrics":0,"karaoke":0,"forced":0,"hearing_impaired":0,"visual_impaired":0,"clean_effects":0,"attached_pic":0}},{"index":1,"codec_name":"h264","codec_long_name":"H.264 / AVC / MPEG-4 AVC / MPEG-4 part 10","profile":"Main","codec_type":"video","codec_time_base":"1/50","codec_tag_string":"avc1","codec_tag":"0x31637661","width":854,"height":480,"coded_width":864,"coded_height":480,"has_b_frames":1,"sample_aspect_ratio":"1280:1281","display_aspect_ratio":"16:9","pix_fmt":"yuv420p","level":30,"color_range":"N/A","color_space":"unknown","color_transfer":"unknown","color_primaries":"unknown","chroma_location":"left","timecode":"N/A","refs":3,"is_avc":1,"nal_length_size":4,"id":"N/A","r_frame_rate":"25/1","avg_frame_rate":"115000/4561","time_base":"1/90000","start_pts":0,"start_time":0,"duration_ts":410490,"duration":4.561,"bit_rate":1115932,"max_bit_rate":"N/A","bits_per_raw_sample":8,"nb_frames":115,"nb_read_frames":"N/A","nb_read_packets":"N/A","tags":{"language":"und","handler_name":"VideoHandler"},"disposition":{"default":1,"dub":0,"original":0,"comment":0,"lyrics":0,"karaoke":0,"forced":0,"hearing_impaired":0,"visual_impaired":0,"clean_effects":0,"attached_pic":0}}],"format":{"filename":"/Users/jose/www/video/public/videos/1468093487535.mp4","nb_streams":2,"nb_programs":0,"format_name":"mov,mp4,m4a,3gp,3g2,mj2","format_long_name":"QuickTime / MOV","start_time":0,"duration":4.668,"size":714569,"bit_rate":1224625,"probe_score":100,"tags":{"major_brand":"isom","minor_version":"512","compatible_brands":"isomiso2avc1mp41","encoder":"Lavf56.40.101"}},"chapters":[]},"screenshot":"1468093487535.mp4.png","_id":"VgRzeRu1gsYV5dcU"}
{"nombre":"1468093304792.mp4","metadata":{"streams":[{"index":0,"codec_name":"aac","codec_long_name":"AAC (Advanced Audio Coding)","profile":"LC","codec_type":"audio","codec_time_base":"1/44100","codec_tag_string":"mp4a","codec_tag":"0x6134706d","sample_fmt":"fltp","sample_rate":44100,"channels":2,"channel_layout":"stereo","bits_per_sample":0,"id":"N/A","r_frame_rate":"0/0","avg_frame_rate":"0/0","time_base":"1/44100","start_pts":0,"start_time":0,"duration_ts":205824,"duration":4.667211,"bit_rate":125587,"max_bit_rate":"N/A","bits_per_raw_sample":"N/A","nb_frames":201,"nb_read_frames":"N/A","nb_read_packets":"N/A","tags":{"language":"und","handler_name":"SoundHandler"},"disposition":{"default":1,"dub":0,"original":0,"comment":0,"lyrics":0,"karaoke":0,"forced":0,"hearing_impaired":0,"visual_impaired":0,"clean_effects":0,"attached_pic":0}},{"index":1,"codec_name":"h264","codec_long_name":"H.264 / AVC / MPEG-4 AVC / MPEG-4 part 10","profile":"Main","codec_type":"video","codec_time_base":"1/50","codec_tag_string":"avc1","codec_tag":"0x31637661","width":854,"height":480,"coded_width":864,"coded_height":480,"has_b_frames":1,"sample_aspect_ratio":"1280:1281","display_aspect_ratio":"16:9","pix_fmt":"yuv420p","level":30,"color_range":"N/A","color_space":"unknown","color_transfer":"unknown","color_primaries":"unknown","chroma_location":"left","timecode":"N/A","refs":3,"is_avc":1,"nal_length_size":4,"id":"N/A","r_frame_rate":"25/1","avg_frame_rate":"115000/4561","time_base":"1/90000","start_pts":0,"start_time":0,"duration_ts":410490,"duration":4.561,"bit_rate":1115932,"max_bit_rate":"N/A","bits_per_raw_sample":8,"nb_frames":115,"nb_read_frames":"N/A","nb_read_packets":"N/A","tags":{"language":"und","handler_name":"VideoHandler"},"disposition":{"default":1,"dub":0,"original":0,"comment":0,"lyrics":0,"karaoke":0,"forced":0,"hearing_impaired":0,"visual_impaired":0,"clean_effects":0,"attached_pic":0}}],"format":{"filename":"/Users/jose/www/video/public/videos/1468093304792.mp4","nb_streams":2,"nb_programs":0,"format_name":"mov,mp4,m4a,3gp,3g2,mj2","format_long_name":"QuickTime / MOV","start_time":0,"duration":4.668,"size":714569,"bit_rate":1224625,"probe_score":100,"tags":{"major_brand":"isom","minor_version":"512","compatible_brands":"isomiso2avc1mp41","encoder":"Lavf56.40.101"}},"chapters":[]},"screenshot":"1468093304792.mp4.png","_id":"Yvgjj7o1QMHLoJwD"}
{"nombre":"1468093191502.mp4","metadata":{"streams":[{"index":0,"codec_name":"aac","codec_long_name":"AAC (Advanced Audio Coding)","profile":"LC","codec_type":"audio","codec_time_base":"1/44100","codec_tag_string":"mp4a","codec_tag":"0x6134706d","sample_fmt":"fltp","sample_rate":44100,"channels":2,"channel_layout":"stereo","bits_per_sample":0,"id":"N/A","r_frame_rate":"0/0","avg_frame_rate":"0/0","time_base":"1/44100","start_pts":0,"start_time":0,"duration_ts":205824,"duration":4.667211,"bit_rate":125587,"max_bit_rate":"N/A","bits_per_raw_sample":"N/A","nb_frames":201,"nb_read_frames":"N/A","nb_read_packets":"N/A","tags":{"language":"und","handler_name":"SoundHandler"},"disposition":{"default":1,"dub":0,"original":0,"comment":0,"lyrics":0,"karaoke":0,"forced":0,"hearing_impaired":0,"visual_impaired":0,"clean_effects":0,"attached_pic":0}},{"index":1,"codec_name":"h264","codec_long_name":"H.264 / AVC / MPEG-4 AVC / MPEG-4 part 10","profile":"Main","codec_type":"video","codec_time_base":"1/50","codec_tag_string":"avc1","codec_tag":"0x31637661","width":854,"height":480,"coded_width":864,"coded_height":480,"has_b_frames":1,"sample_aspect_ratio":"1280:1281","display_aspect_ratio":"16:9","pix_fmt":"yuv420p","level":30,"color_range":"N/A","color_space":"unknown","color_transfer":"unknown","color_primaries":"unknown","chroma_location":"left","timecode":"N/A","refs":3,"is_avc":1,"nal_length_size":4,"id":"N/A","r_frame_rate":"25/1","avg_frame_rate":"115000/4561","time_base":"1/90000","start_pts":0,"start_time":0,"duration_ts":410490,"duration":4.561,"bit_rate":1115932,"max_bit_rate":"N/A","bits_per_raw_sample":8,"nb_frames":115,"nb_read_frames":"N/A","nb_read_packets":"N/A","tags":{"language":"und","handler_name":"VideoHandler"},"disposition":{"default":1,"dub":0,"original":0,"comment":0,"lyrics":0,"karaoke":0,"forced":0,"hearing_impaired":0,"visual_impaired":0,"clean_effects":0,"attached_pic":0}}],"format":{"filename":"/Users/jose/www/video/public/videos/1468093191502.mp4","nb_streams":2,"nb_programs":0,"format_name":"mov,mp4,m4a,3gp,3g2,mj2","format_long_name":"QuickTime / MOV","start_time":0,"duration":4.668,"size":714569,"bit_rate":1224625,"probe_score":100,"tags":{"major_brand":"isom","minor_version":"512","compatible_brands":"isomiso2avc1mp41","encoder":"Lavf56.40.101"}},"chapters":[]},"screenshot":"1468093191502.mp4.png","_id":"ZqVmtzzQMtFH9LQi"}
{"nombre":"1468089082777.mp4","metadata":{"streams":[{"index":0,"codec_name":"h264","codec_long_name":"H.264 / AVC / MPEG-4 AVC / MPEG-4 part 10","profile":"Baseline","codec_type":"video","codec_time_base":"1/60054","codec_tag_string":"avc1","codec_tag":"0x31637661","width":640,"height":352,"coded_width":640,"coded_height":352,"has_b_frames":0,"sample_aspect_ratio":"0:1","display_aspect_ratio":"0:1","pix_fmt":"yuv420p","level":30,"color_range":"N/A","color_space":"unknown","color_transfer":"unknown","color_primaries":"unknown","chroma_location":"left","timecode":"N/A","refs":1,"is_avc":1,"nal_length_size":4,"id":"N/A","r_frame_rate":"30027/1000","avg_frame_rate":"30027/1000","time_base":"1/30027","start_pts":0,"start_time":0,"duration_ts":765000,"duration":25.477071,"bit_rate":1686697,"max_bit_rate":"N/A","bits_per_raw_sample":8,"nb_frames":765,"nb_read_frames":"N/A","nb_read_packets":"N/A","side_data_type":"Display Matrix","side_data_size":36,"displaymatrix":"","rotation":"-90","tags":{"rotate":"90","creation_time":"2016-02-18 00:19:29","language":"eng","encoder":"AVC Coding"},"disposition":{"default":1,"dub":0,"original":0,"comment":0,"lyrics":0,"karaoke":0,"forced":0,"hearing_impaired":0,"visual_impaired":0,"clean_effects":0,"attached_pic":0}},{"index":1,"codec_name":"aac","codec_long_name":"AAC (Advanced Audio Coding)","profile":"LC","codec_type":"audio","codec_time_base":"1/48000","codec_tag_string":"mp4a","codec_tag":"0x6134706d","sample_fmt":"fltp","sample_rate":48000,"channels":2,"channel_layout":"stereo","bits_per_sample":0,"id":"N/A","r_frame_rate":"0/0","avg_frame_rate":"0/0","time_base":"1/48000","start_pts":0,"start_time":0,"duration_ts":1232896,"duration":25.685333,"bit_rate":125794,"max_bit_rate":"N/A","bits_per_raw_sample":"N/A","nb_frames":1204,"nb_read_frames":"N/A","nb_read_packets":"N/A","tags":{"creation_time":"2016-02-14 05:55:44","language":"eng"},"disposition":{"default":1,"dub":0,"original":0,"comment":0,"lyrics":0,"karaoke":0,"forced":0,"hearing_impaired":0,"visual_impaired":0,"clean_effects":0,"attached_pic":0}}],"format":{"filename":"/Users/jose/www/video/public/videos/1468089082777.mp4","nb_streams":2,"nb_programs":0,"format_name":"mov,mp4,m4a,3gp,3g2,mj2","format_long_name":"QuickTime / MOV","start_time":0,"duration":25.666667,"size":5797566,"bit_rate":1807033,"probe_score":100,"tags":{"major_brand":"isom","minor_version":"0","compatible_brands":"isomiso2avc1","creation_time":"2016-02-18 00:19:31"}},"chapters":[]},"screenshot":"1468089082777.mp4.png","_id":"c0OXDbQPujLHHZfK"}
{"nombre":"1468090298608.mp4","metadata":{"streams":[{"index":0,"codec_name":"aac","codec_long_name":"AAC (Advanced Audio Coding)","profile":"LC","codec_type":"audio","codec_time_base":"1/44100","codec_tag_string":"mp4a","codec_tag":"0x6134706d","sample_fmt":"fltp","sample_rate":44100,"channels":2,"channel_layout":"stereo","bits_per_sample":0,"id":"N/A","r_frame_rate":"0/0","avg_frame_rate":"0/0","time_base":"1/44100","start_pts":0,"start_time":0,"duration_ts":205824,"duration":4.667211,"bit_rate":125587,"max_bit_rate":"N/A","bits_per_raw_sample":"N/A","nb_frames":201,"nb_read_frames":"N/A","nb_read_packets":"N/A","tags":{"language":"und","handler_name":"SoundHandler"},"disposition":{"default":1,"dub":0,"original":0,"comment":0,"lyrics":0,"karaoke":0,"forced":0,"hearing_impaired":0,"visual_impaired":0,"clean_effects":0,"attached_pic":0}},{"index":1,"codec_name":"h264","codec_long_name":"H.264 / AVC / MPEG-4 AVC / MPEG-4 part 10","profile":"Main","codec_type":"video","codec_time_base":"1/50","codec_tag_string":"avc1","codec_tag":"0x31637661","width":854,"height":480,"coded_width":864,"coded_height":480,"has_b_frames":1,"sample_aspect_ratio":"1280:1281","display_aspect_ratio":"16:9","pix_fmt":"yuv420p","level":30,"color_range":"N/A","color_space":"unknown","color_transfer":"unknown","color_primaries":"unknown","chroma_location":"left","timecode":"N/A","refs":3,"is_avc":1,"nal_length_size":4,"id":"N/A","r_frame_rate":"25/1","avg_frame_rate":"115000/4561","time_base":"1/90000","start_pts":0,"start_time":0,"duration_ts":410490,"duration":4.561,"bit_rate":1115932,"max_bit_rate":"N/A","bits_per_raw_sample":8,"nb_frames":115,"nb_read_frames":"N/A","nb_read_packets":"N/A","tags":{"language":"und","handler_name":"VideoHandler"},"disposition":{"default":1,"dub":0,"original":0,"comment":0,"lyrics":0,"karaoke":0,"forced":0,"hearing_impaired":0,"visual_impaired":0,"clean_effects":0,"attached_pic":0}}],"format":{"filename":"/Users/jose/www/video/public/videos/1468090298608.mp4","nb_streams":2,"nb_programs":0,"format_name":"mov,mp4,m4a,3gp,3g2,mj2","format_long_name":"QuickTime / MOV","start_time":0,"duration":4.668,"size":714569,"bit_rate":1224625,"probe_score":100,"tags":{"major_brand":"isom","minor_version":"512","compatible_brands":"isomiso2avc1mp41","encoder":"Lavf56.40.101"}},"chapters":[]},"screenshot":"1468090298608.mp4.png","_id":"c6bVvDUJF3iEYUrj"}
{"nombre":"1468092216631.mp4","metadata":{"streams":[{"index":0,"codec_name":"aac","codec_long_name":"AAC (Advanced Audio Coding)","profile":"LC","codec_type":"audio","codec_time_base":"1/44100","codec_tag_string":"mp4a","codec_tag":"0x6134706d","sample_fmt":"fltp","sample_rate":44100,"channels":2,"channel_layout":"stereo","bits_per_sample":0,"id":"N/A","r_frame_rate":"0/0","avg_frame_rate":"0/0","time_base":"1/44100","start_pts":0,"start_time":0,"duration_ts":205824,"duration":4.667211,"bit_rate":125587,"max_bit_rate":"N/A","bits_per_raw_sample":"N/A","nb_frames":201,"nb_read_frames":"N/A","nb_read_packets":"N/A","tags":{"language":"und","handler_name":"SoundHandler"},"disposition":{"default":1,"dub":0,"original":0,"comment":0,"lyrics":0,"karaoke":0,"forced":0,"hearing_impaired":0,"visual_impaired":0,"clean_effects":0,"attached_pic":0}},{"index":1,"codec_name":"h264","codec_long_name":"H.264 / AVC / MPEG-4 AVC / MPEG-4 part 10","profile":"Main","codec_type":"video","codec_time_base":"1/50","codec_tag_string":"avc1","codec_tag":"0x31637661","width":854,"height":480,"coded_width":864,"coded_height":480,"has_b_frames":1,"sample_aspect_ratio":"1280:1281","display_aspect_ratio":"16:9","pix_fmt":"yuv420p","level":30,"color_range":"N/A","color_space":"unknown","color_transfer":"unknown","color_primaries":"unknown","chroma_location":"left","timecode":"N/A","refs":3,"is_avc":1,"nal_length_size":4,"id":"N/A","r_frame_rate":"25/1","avg_frame_rate":"115000/4561","time_base":"1/90000","start_pts":0,"start_time":0,"duration_ts":410490,"duration":4.561,"bit_rate":1115932,"max_bit_rate":"N/A","bits_per_raw_sample":8,"nb_frames":115,"nb_read_frames":"N/A","nb_read_packets":"N/A","tags":{"language":"und","handler_name":"VideoHandler"},"disposition":{"default":1,"dub":0,"original":0,"comment":0,"lyrics":0,"karaoke":0,"forced":0,"hearing_impaired":0,"visual_impaired":0,"clean_effects":0,"attached_pic":0}}],"format":{"filename":"/Users/jose/www/video/public/videos/1468092216631.mp4","nb_streams":2,"nb_programs":0,"format_name":"mov,mp4,m4a,3gp,3g2,mj2","format_long_name":"QuickTime / MOV","start_time":0,"duration":4.668,"size":714569,"bit_rate":1224625,"probe_score":100,"tags":{"major_brand":"isom","minor_version":"512","compatible_brands":"isomiso2avc1mp41","encoder":"Lavf56.40.101"}},"chapters":[]},"screenshot":"1468092216631.mp4.png","_id":"eqisy706XYJiRPWC"}
{"nombre":"1468090756716.mp4","metadata":{"streams":[{"index":0,"codec_name":"aac","codec_long_name":"AAC (Advanced Audio Coding)","profile":"LC","codec_type":"audio","codec_time_base":"1/44100","codec_tag_string":"mp4a","codec_tag":"0x6134706d","sample_fmt":"fltp","sample_rate":44100,"channels":2,"channel_layout":"stereo","bits_per_sample":0,"id":"N/A","r_frame_rate":"0/0","avg_frame_rate":"0/0","time_base":"1/44100","start_pts":0,"start_time":0,"duration_ts":205824,"duration":4.667211,"bit_rate":125587,"max_bit_rate":"N/A","bits_per_raw_sample":"N/A","nb_frames":201,"nb_read_frames":"N/A","nb_read_packets":"N/A","tags":{"language":"und","handler_name":"SoundHandler"},"disposition":{"default":1,"dub":0,"original":0,"comment":0,"lyrics":0,"karaoke":0,"forced":0,"hearing_impaired":0,"visual_impaired":0,"clean_effects":0,"attached_pic":0}},{"index":1,"codec_name":"h264","codec_long_name":"H.264 / AVC / MPEG-4 AVC / MPEG-4 part 10","profile":"Main","codec_type":"video","codec_time_base":"1/50","codec_tag_string":"avc1","codec_tag":"0x31637661","width":854,"height":480,"coded_width":864,"coded_height":480,"has_b_frames":1,"sample_aspect_ratio":"1280:1281","display_aspect_ratio":"16:9","pix_fmt":"yuv420p","level":30,"color_range":"N/A","color_space":"unknown","color_transfer":"unknown","color_primaries":"unknown","chroma_location":"left","timecode":"N/A","refs":3,"is_avc":1,"nal_length_size":4,"id":"N/A","r_frame_rate":"25/1","avg_frame_rate":"115000/4561","time_base":"1/90000","start_pts":0,"start_time":0,"duration_ts":410490,"duration":4.561,"bit_rate":1115932,"max_bit_rate":"N/A","bits_per_raw_sample":8,"nb_frames":115,"nb_read_frames":"N/A","nb_read_packets":"N/A","tags":{"language":"und","handler_name":"VideoHandler"},"disposition":{"default":1,"dub":0,"original":0,"comment":0,"lyrics":0,"karaoke":0,"forced":0,"hearing_impaired":0,"visual_impaired":0,"clean_effects":0,"attached_pic":0}}],"format":{"filename":"/Users/jose/www/video/public/videos/1468090756716.mp4","nb_streams":2,"nb_programs":0,"format_name":"mov,mp4,m4a,3gp,3g2,mj2","format_long_name":"QuickTime / MOV","start_time":0,"duration":4.668,"size":714569,"bit_rate":1224625,"probe_score":100,"tags":{"major_brand":"isom","minor_version":"512","compatible_brands":"isomiso2avc1mp41","encoder":"Lavf56.40.101"}},"chapters":[]},"screenshot":"1468090756716.mp4.png","_id":"iUO77ad9Blgu25SC"}
{"nombre":"1468091760175.mp4","metadata":{"streams":[{"index":0,"codec_name":"aac","codec_long_name":"AAC (Advanced Audio Coding)","profile":"LC","codec_type":"audio","codec_time_base":"1/44100","codec_tag_string":"mp4a","codec_tag":"0x6134706d","sample_fmt":"fltp","sample_rate":44100,"channels":2,"channel_layout":"stereo","bits_per_sample":0,"id":"N/A","r_frame_rate":"0/0","avg_frame_rate":"0/0","time_base":"1/44100","start_pts":0,"start_time":0,"duration_ts":205824,"duration":4.667211,"bit_rate":125587,"max_bit_rate":"N/A","bits_per_raw_sample":"N/A","nb_frames":201,"nb_read_frames":"N/A","nb_read_packets":"N/A","tags":{"language":"und","handler_name":"SoundHandler"},"disposition":{"default":1,"dub":0,"original":0,"comment":0,"lyrics":0,"karaoke":0,"forced":0,"hearing_impaired":0,"visual_impaired":0,"clean_effects":0,"attached_pic":0}},{"index":1,"codec_name":"h264","codec_long_name":"H.264 / AVC / MPEG-4 AVC / MPEG-4 part 10","profile":"Main","codec_type":"video","codec_time_base":"1/50","codec_tag_string":"avc1","codec_tag":"0x31637661","width":854,"height":480,"coded_width":864,"coded_height":480,"has_b_frames":1,"sample_aspect_ratio":"1280:1281","display_aspect_ratio":"16:9","pix_fmt":"yuv420p","level":30,"color_range":"N/A","color_space":"unknown","color_transfer":"unknown","color_primaries":"unknown","chroma_location":"left","timecode":"N/A","refs":3,"is_avc":1,"nal_length_size":4,"id":"N/A","r_frame_rate":"25/1","avg_frame_rate":"115000/4561","time_base":"1/90000","start_pts":0,"start_time":0,"duration_ts":410490,"duration":4.561,"bit_rate":1115932,"max_bit_rate":"N/A","bits_per_raw_sample":8,"nb_frames":115,"nb_read_frames":"N/A","nb_read_packets":"N/A","tags":{"language":"und","handler_name":"VideoHandler"},"disposition":{"default":1,"dub":0,"original":0,"comment":0,"lyrics":0,"karaoke":0,"forced":0,"hearing_impaired":0,"visual_impaired":0,"clean_effects":0,"attached_pic":0}}],"format":{"filename":"/Users/jose/www/video/public/videos/1468091760175.mp4","nb_streams":2,"nb_programs":0,"format_name":"mov,mp4,m4a,3gp,3g2,mj2","format_long_name":"QuickTime / MOV","start_time":0,"duration":4.668,"size":714569,"bit_rate":1224625,"probe_score":100,"tags":{"major_brand":"isom","minor_version":"512","compatible_brands":"isomiso2avc1mp41","encoder":"Lavf56.40.101"}},"chapters":[]},"screenshot":"1468091760175.mp4.png","_id":"kSiJf5oFyfUlk37Z"}
